<svg
                xmlns="http://www.w3.org/2000/svg"
                viewBox="0 0 48 48"
              >
                <path
                  fill="#a5d6a7"
                  d="M35.358,12.623l-14.716,0c-0.941,0-1.81,0.502-2.28,1.317l-7.358,12.744	c-0.47,0.815-0.47,1.818,0,2.633l7.358,12.744c0.47,0.815,1.34,1.317,2.28,1.317l14.716,0c0.941,0,1.81-0.502,2.28-1.317	l7.358-12.744c0.47-0.815,0.47-1.818,0-2.633l-7.358-12.744C37.168,13.125,36.298,12.623,35.358,12.623z"
                />
                <path
                  fill="none"
                  stroke="#18193f"
                  stroke-linecap="round"
                  stroke-linejoin="round"
                  stroke-miterlimit="10"
                  stroke-width="3"
                  d="M8.499,30.768l5.46,9.241c0.18,0.304,0.507,0.491,0.861,0.491h18.359c0.354,0,0.681-0.187,0.861-0.491l9.159-15.5	c0.185-0.314,0.185-0.704,0-1.017l-9.159-15.5C33.86,7.687,33.533,7.5,33.179,7.5H14.821c-0.354,0-0.681,0.187-0.861,0.491L8.045,18"
                />
                <line
                  x1="4.5"
                  x2="5.96"
                  y1="24"
                  y2="26.471"
                  fill="none"
                  stroke="#18193f"
                  stroke-linecap="round"
                  stroke-linejoin="round"
                  stroke-miterlimit="10"
                  stroke-width="3"
                />
                <polyline
                  fill="none"
                  stroke="#18193f"
                  stroke-linecap="round"
                  stroke-linejoin="round"
                  stroke-miterlimit="10"
                  stroke-width="3"
                  points="14.783,16.004 8,18 6.004,11.217"
                />
              </svg>